<?xml version="1.0" encoding="utf-8"?>
<!-- Generator: Adobe Illustrator 18.0.0, SVG Export Plug-In . SVG Version: 6.00 Build 0)  -->
<!DOCTYPE svg PUBLIC "-//W3C//DTD SVG 1.1//EN" "http://www.w3.org/Graphics/SVG/1.1/DTD/svg11.dtd">
<svg version="1.1" id="Layer_1" xmlns="http://www.w3.org/2000/svg" xmlns:xlink="http://www.w3.org/1999/xlink" x="0px" y="0px"
	 viewBox="0 0 243.3 66.8" enable-background="new 0 0 243.3 66.8" xml:space="preserve">
<g>
	<path fill="#FFFFFF" d="M1,4.1h20.1C36.3,4.1,53,14.2,53,34.4S36.3,64.7,21.1,64.7H1V4.1z M7.2,59.3h12.2
		c18.2,0,27.1-12.3,27.1-24.8c0-12.5-8.8-24.8-27.1-24.8H7.2V59.3z"/>
	<path fill="#FFFFFF" d="M98.5,46.2H65.2c0.2,8.1,6.4,14.6,14.6,14.6c6,0,10.6-3.3,12.8-6.9l4.4,3.4c-4.7,6-10.6,8.5-17.2,8.5
		c-11.9,0-20.7-9-20.7-21.1S68,23.6,79.4,23.6c12.6,0,19.2,8.9,19.2,19.9C98.6,44.3,98.6,45.2,98.5,46.2z M92.6,41.6
		c-0.3-7.5-5-13.1-13.3-13.1c-7.8,0-13.5,6.3-14,13.1H92.6z"/>
	<path fill="#FFFFFF" d="M113.6,64.7h-5.8V0h5.8V64.7z"/>
	<path fill="#FFFFFF" d="M147.3,29.5H136v23.4c0,6,2.5,7.4,6,7.4c1.6,0,3.5-0.5,5.1-1.3l0.3,5.1c-2.1,0.8-4.2,1.2-6.9,1.2
		c-4.3,0-10.3-1.9-10.3-10.7v-25h-8.3v-4.9h8.3V13.4h5.8v11.3h11.3V29.5z"/>
	<path fill="#FFFFFF" d="M157.7,24.7h5.6c0.2,2.1,0.3,5.1,0.3,6.9h0.2c2.2-4.6,7.2-7.9,12.8-7.9c1.5,0,2.7,0.1,3.9,0.4l-0.8,5.5
		c-0.7-0.3-2.6-0.5-4.1-0.5c-6.2,0-11.7,4.5-11.7,15.2v20.6h-5.8V33.5C158.1,31.3,158,27.4,157.7,24.7z"/>
	<path fill="#FFFFFF" d="M213.2,38.9c0-6.9-3.8-10.4-10.7-10.4c-4.7,0-9.1,1.9-11.9,4.7l-3.3-3.9c3.3-3.3,8.9-5.7,15.8-5.7
		c8.7,0,15.6,4.8,15.6,14.6v17.6c0,3.1,0.3,6.8,0.7,9h-5.2c-0.3-2-0.6-4.4-0.6-6.5h-0.2c-3.7,5.3-8.1,7.5-14.6,7.5
		c-6.1,0-13.9-3.3-13.9-12.2c0-12.3,13.6-13.4,28.3-13.4V38.9z M211.4,44.7c-9.5,0-20.6,1-20.6,8.7c0,5.7,4.9,7.6,9.4,7.6
		c8.2,0,12.8-6.2,12.8-13.3v-3H211.4z"/>
	<path fill="#E95B0C" d="M237.1,65.3c-2.7,0-4.6-2.2-4.6-4.6c0-2.4,1.9-4.6,4.6-4.6s4.6,2.2,4.6,4.6C241.7,63,239.8,65.3,237.1,65.3
		z"/>
</g>
</svg>
